<svg width="84" height="83" viewBox="0 0 84 83" fill="none" xmlns="http://www.w3.org/2000/svg">
<path id="Star 4" opacity="0.5" d="M36.7941 4.73908C38.1214 -0.62007 45.7393 -0.620088 47.0666 4.73906L52.6745 27.3827C53.1544 29.3203 54.6838 30.823 56.6297 31.2686L79.3346 36.4674C84.8151 37.7223 84.8151 45.5284 79.3346 46.7833L56.6297 51.9821C54.6838 52.4277 53.1544 53.9304 52.6745 55.868L47.0666 78.5116C45.7393 83.8708 38.1214 83.8708 36.7941 78.5116L31.1862 55.868C30.7063 53.9304 29.1769 52.4277 27.231 51.9821L4.52606 46.7832C-0.954428 45.5284 -0.954414 37.7223 4.52607 36.4674L27.231 31.2686C29.1769 30.823 30.7063 29.3203 31.1862 27.3827L36.7941 4.73908Z" fill="#A4D8FD"/>
</svg>
